<svg width="108" height="157" viewBox="0 0 108 157" fill="none" xmlns="http://www.w3.org/2000/svg">
<path d="M25.1367 74.0267L21.0772 71.4749C21.2459 72.1329 21.2797 72.8189 21.1765 73.4914C21.0733 74.1629 20.8351 74.8064 20.4753 75.3832C20.1165 75.9601 19.6449 76.4586 19.0884 76.847C18.5309 77.2355 17.9021 77.507 17.2375 77.6451L21.3125 80.1969C22.1265 80.6501 23.0843 80.7718 23.9861 80.538C24.8888 80.3051 25.6662 79.7331 26.16 78.9418C26.6538 78.1495 26.8255 77.1988 26.6394 76.2837C26.4532 75.3697 25.9237 74.561 25.1598 74.0267H25.1367ZM19.2591 74.6383C19.7703 73.8228 19.9362 72.8363 19.7221 71.8971C19.507 70.9579 18.9292 70.1425 18.1152 69.6304L12.4566 66.1046C11.6406 65.5954 10.6549 65.4312 9.71741 65.6486C8.77896 65.8669 7.96688 66.4486 7.45763 67.267C6.94838 68.0854 6.78441 69.0729 7.00142 70.012C7.21939 70.9512 7.80002 71.7657 8.61694 72.2759L14.2283 75.7929C14.6334 76.0499 15.0858 76.2238 15.5584 76.305C16.0319 76.3862 16.5161 76.3726 16.9829 76.2654C17.4507 76.1572 17.8924 75.9591 18.283 75.6799C18.6737 75.4006 19.0054 75.047 19.2591 74.6383ZM34.8221 111.026C34.1797 109.169 33.9415 107.196 34.1248 105.24C34.7652 100.198 36.4839 95.354 39.1633 91.0379C41.6401 86.4918 45.1749 82.6115 49.4688 79.7254C50.5288 79.0607 51.6524 78.5031 52.8223 78.0616V78.022C49.9578 72.8218 45.9369 68.3511 41.0701 64.9568C36.2042 61.5634 30.6237 59.3372 24.7605 58.4512C24.6602 58.4512 24.5609 58.43 24.4693 58.3884C24.3777 58.3469 24.2966 58.286 24.2301 58.2106C24.1635 58.1353 24.1143 58.0464 24.0854 57.9507C24.0565 57.8541 24.0478 57.7526 24.0603 57.6531C24.0738 57.5536 24.1076 57.4579 24.1606 57.3719C24.2127 57.2869 24.2831 57.2135 24.367 57.1574C24.45 57.1014 24.5445 57.0637 24.6429 57.0473C24.7422 57.0309 24.8435 57.0357 24.9409 57.0608C31.0278 57.9797 36.8215 60.2928 41.8725 63.8186C46.9226 67.3453 51.094 71.9908 54.0608 77.3939C54.1022 77.478 54.1292 77.5678 54.1389 77.6606C55.2374 77.3678 56.3726 77.2355 57.5088 77.2683C53.349 69.0951 46.2281 62.8233 37.6046 59.7382C30.9053 56.7478 23.4238 55.997 16.2653 57.5951C11.6001 58.8677 7.49909 61.6813 4.62877 65.579C1.47778 70.0536 -0.142545 75.4296 0.00984426 80.9032C0.163198 86.3769 2.07964 91.6534 5.47464 95.9453C9.12716 100.617 13.6853 104.499 18.8752 107.359L19.424 107.635C23.7691 109.525 28.36 110.787 33.059 111.386C33.7014 111.45 34.3601 111.502 35.0343 111.544L34.8616 111.097L34.8221 111.026ZM27.4717 79.7882C27.1206 80.3477 26.6625 80.8327 26.1234 81.2143C25.5852 81.596 24.9766 81.8675 24.3333 82.0134C23.69 82.1593 23.0235 82.1767 22.3734 82.0646C21.7234 81.9516 21.1013 81.712 20.5438 81.3583L7.88874 73.4614C6.7574 72.7503 5.95494 71.6179 5.65788 70.3145C5.35985 69.011 5.59134 67.6419 6.3012 66.5095C7.01106 65.3771 8.14145 64.5732 9.44254 64.2746C10.7436 63.977 12.1103 64.2089 13.2407 64.92L25.889 72.8411C26.4494 73.1918 26.9355 73.6498 27.3193 74.189C27.7022 74.7291 27.9752 75.3388 28.1228 75.9852C28.2694 76.6306 28.2877 77.2992 28.1758 77.9514C28.0649 78.6046 27.8247 79.2288 27.4717 79.7882ZM58.7781 111.144C59.5034 111.494 60.3068 111.648 61.1092 111.591C61.9117 111.535 62.6862 111.27 63.3546 110.821C65.0627 109.753 66.4814 108.28 67.4884 106.534C68.4953 104.787 69.0595 102.82 69.1299 100.804C69.182 100.001 69.0238 99.1957 68.6708 98.472C68.3178 97.7473 67.7816 97.128 67.1161 96.6748C66.3059 96.2323 65.3646 96.0903 64.4599 96.2748C65.1283 95.7927 65.9124 95.4941 66.7322 95.411C67.0746 95.3859 67.418 95.4593 67.7198 95.6226C67.8462 95.6999 67.9967 95.7289 68.1423 95.7038C68.2889 95.6796 68.421 95.6033 68.5155 95.4893C68.6101 95.3753 68.6612 95.2313 68.6592 95.0825C68.6573 94.9346 68.6014 94.7916 68.503 94.6805L68.3468 94.5395C67.5038 94.2139 66.5866 94.1337 65.7002 94.3085C64.8138 94.4834 63.995 94.9066 63.3391 95.5289C61.3687 97.0545 59.7194 98.957 58.4887 101.126L58.3942 101.275C57.0786 103.476 56.2251 105.923 55.8865 108.467C55.6772 109.346 55.7206 110.267 56.0119 111.123C56.3032 111.979 56.8308 112.734 57.532 113.302C57.6062 113.341 57.6853 113.367 57.7673 113.381C57.9091 113.396 58.0518 113.362 58.1724 113.286C58.2929 113.209 58.3836 113.093 58.4289 112.958C58.4743 112.822 58.4723 112.675 58.4241 112.541C58.3749 112.407 58.2814 112.293 58.1589 112.219C57.7895 111.975 57.5136 111.613 57.3757 111.19C57.1288 110.462 57.0381 109.689 57.1095 108.922C57.3767 109.841 57.9698 110.632 58.7781 111.144ZM59.46 101.927L59.5776 101.731C60.4379 100.23 61.6648 98.9744 63.1433 98.0807C63.5976 97.6826 64.1647 97.4362 64.7646 97.3773C65.3655 97.3183 65.9693 97.4497 66.4921 97.7512C67.0148 98.0536 67.4295 98.5116 67.6793 99.0623C67.9291 99.6121 68.0005 100.227 67.8848 100.82C67.8124 102.61 67.308 104.357 66.4139 105.909C65.5199 107.461 64.2631 108.773 62.7518 109.73C62.2965 110.127 61.7294 110.371 61.1295 110.429C60.5286 110.487 59.9258 110.355 59.403 110.054C58.8803 109.754 58.4646 109.296 58.2138 108.747C57.9631 108.198 57.8888 107.583 58.0026 106.99C58.0422 105.203 58.5505 103.457 59.4754 101.927H59.46ZM59.4754 78.8384C59.052 78.6703 58.6141 78.5389 58.1675 78.4461C58.0663 78.4693 57.9611 78.4722 57.8589 78.4548C57.7567 78.4374 57.6593 78.3998 57.5715 78.3437C55.9454 78.1563 54.2971 78.363 52.7674 78.9486C51.6428 79.3476 50.5683 79.8752 49.5624 80.5187C45.4681 83.285 42.0953 86.9943 39.7275 91.3364C37.1504 95.468 35.4953 100.109 34.8771 104.942C34.6446 107.049 34.9996 109.18 35.9033 111.097C36.2225 111.728 36.6267 112.315 37.1031 112.84C37.2748 113.022 37.4523 113.2 37.6355 113.373C37.8969 113.616 38.1747 113.843 38.4659 114.048C41.4076 116.001 44.7949 117.178 48.3114 117.467C51.8289 117.757 55.3618 117.151 58.5823 115.704C62.7682 114.109 66.303 111.161 68.6284 107.328C70.9827 103.127 71.8546 98.2546 71.1052 93.4959C70.6326 90.2408 69.3074 87.1692 67.2646 84.5952C65.2218 82.0202 62.5348 80.0336 59.4754 78.8384ZM68.096 106.873C66.9974 108.86 65.3945 110.52 63.4491 111.685C62.6978 112.189 61.8278 112.487 60.926 112.549C60.0232 112.611 59.1214 112.435 58.3084 112.039C57.939 111.832 57.6052 111.567 57.3207 111.253C57.4586 111.675 57.7345 112.038 58.1049 112.282C58.2254 112.356 58.318 112.469 58.3672 112.602C58.4164 112.735 58.4183 112.881 58.374 113.015C58.3296 113.151 58.2399 113.267 58.1213 113.344C58.0026 113.422 57.8618 113.457 57.72 113.444C57.8358 113.565 57.9033 113.724 57.912 113.891C57.9206 114.058 57.8686 114.222 57.7663 114.355C57.6641 114.486 57.5175 114.578 57.3535 114.611C57.1895 114.644 57.0198 114.617 56.8742 114.535C56.0823 113.901 55.4882 113.053 55.1612 112.093C54.8333 111.131 54.786 110.098 55.0243 109.11C55.4072 106.253 56.3668 103.505 57.8454 101.032L57.9399 100.86C59.3259 98.4159 61.1922 96.2796 63.425 94.5791C64.159 93.8795 65.0762 93.4032 66.0696 93.208C67.064 93.0119 68.0931 93.1037 69.0364 93.4718C69.1965 93.5655 69.3132 93.7182 69.3614 93.8979C69.4096 94.0766 69.3865 94.268 69.2949 94.4293C69.2158 94.5598 69.0962 94.6602 68.9554 94.7173C68.8136 94.7743 68.6583 94.783 68.5117 94.7433C68.6091 94.8545 68.665 94.9975 68.667 95.1453C68.6689 95.2941 68.6188 95.4381 68.5233 95.5521C68.4287 95.6661 68.2966 95.7424 68.15 95.7666C68.0044 95.7917 67.8539 95.7627 67.7276 95.6854C67.4228 95.5211 67.0775 95.4477 66.7322 95.4738C67.0669 95.5617 67.3881 95.6941 67.688 95.8661C68.4384 96.3724 69.0422 97.0661 69.4415 97.8787C69.8398 98.6913 70.0192 99.5947 69.9613 100.498C69.9063 102.75 69.264 104.948 68.096 106.873ZM17.5346 108.411L17.0254 108.153C16.3734 107.81 15.73 107.448 15.0983 107.069C13.9419 106.369 12.8221 105.608 11.7438 104.792V149.54C11.684 151.348 12.3177 153.11 13.5146 154.462C14.5119 155.371 15.6866 156.061 16.9646 156.489C18.2416 156.917 19.5947 157.075 20.9363 156.951C22.2847 157.088 23.6475 156.937 24.9342 156.509C26.2208 156.082 27.4032 155.387 28.4044 154.471C29.5849 153.111 30.2012 151.349 30.1279 149.548V112.203C25.7983 111.645 21.5893 110.381 17.6687 108.459L17.5346 108.411ZM87.5382 18.6016C87.1755 18.0233 86.9344 17.377 86.8293 16.7021C86.7241 16.0272 86.7569 15.3379 86.9267 14.6763L82.8517 17.2356C82.4408 17.4852 82.083 17.8142 81.8004 18.2035C81.5169 18.5928 81.3143 19.0345 81.2024 19.503C81.0915 19.9716 81.0742 20.4576 81.1523 20.933C81.2304 21.4083 81.4011 21.8634 81.6567 22.2712C81.9113 22.6799 82.245 23.0335 82.6376 23.3118C83.0301 23.5901 83.4738 23.7872 83.9425 23.8915C84.4122 23.9968 84.8974 24.0065 85.371 23.9224C85.8436 23.8374 86.2959 23.6596 86.7 23.3978L90.775 20.847C90.1124 20.7107 89.4835 20.4412 88.927 20.0556C88.3715 19.6701 87.8989 19.1752 87.5382 18.6016ZM95.5318 9.36153L89.8896 12.8942C89.0736 13.4075 88.4949 14.2243 88.2798 15.1651C88.0657 16.1059 88.2326 17.0935 88.7447 17.9107C89.2569 18.7279 90.0728 19.3078 91.0123 19.5232C91.9507 19.7377 92.9364 19.5706 93.7524 19.0569L99.3715 15.532C100.188 15.0219 100.769 14.2077 100.987 13.2683C101.204 12.3291 101.04 11.3417 100.531 10.5234C100.022 9.70511 99.2094 9.12307 98.271 8.90518C97.3335 8.68721 96.3478 8.85136 95.5318 9.36153ZM103.368 8.79629C100.495 4.89673 96.3912 2.08339 91.7231 0.812332C84.5656 -0.776227 77.0889 -0.022291 70.3924 2.96332C61.7632 6.04179 54.6404 12.3153 50.4873 20.4933C51.6235 20.4576 52.7587 20.587 53.8572 20.8779C53.8678 20.788 53.8949 20.7001 53.9354 20.6189C56.9012 15.2152 61.0697 10.5688 66.1188 7.04105C71.1679 3.51329 76.9616 1.19921 83.0475 0.278498C83.2192 0.278595 83.3841 0.341012 83.5134 0.454349C83.6416 0.56759 83.7246 0.723822 83.7468 0.893973C83.769 1.06412 83.7284 1.2365 83.6329 1.37892C83.5375 1.52134 83.3937 1.62405 83.2278 1.66801C77.3666 2.55722 71.789 4.78571 66.9251 8.1809C62.0622 11.576 58.0441 16.0469 55.1815 21.247C56.3533 21.6818 57.4779 22.2364 58.535 22.904C62.8289 25.7892 66.3638 29.6695 68.8406 34.2165C71.5199 38.5317 73.2386 43.3763 73.8791 48.418C74.0623 50.3746 73.8251 52.3476 73.1817 54.2037V54.282L73.0091 54.7293C73.6833 54.6878 74.3439 54.6327 74.9921 54.5651C79.6911 53.9651 84.2821 52.7022 88.6271 50.8123L89.1759 50.5379C94.3369 47.6914 98.8728 43.8333 102.514 39.1935C105.916 34.8996 107.838 29.6164 107.99 24.136C108.143 18.6559 106.526 13.2737 103.368 8.79629ZM100.084 16.6468L87.4282 24.6075C86.2978 25.2925 84.9427 25.5041 83.6571 25.1969C82.3714 24.8896 81.2574 24.0877 80.5572 22.9639C79.857 21.8412 79.6264 20.4866 79.9148 19.1942C80.2042 17.9019 80.9883 16.7753 82.0994 16.058L94.74 8.13684C95.3004 7.78582 95.9244 7.5488 96.5764 7.43923C97.2274 7.32976 97.8948 7.34996 98.5391 7.49866C99.1824 7.64736 99.791 7.92167 100.329 8.30603C100.867 8.6903 101.325 9.17698 101.676 9.73835C102.026 10.2997 102.262 10.9247 102.372 11.5776C102.481 12.2306 102.461 12.8988 102.312 13.5439C102.164 14.189 101.89 14.7986 101.506 15.3377C101.123 15.8768 100.637 16.335 100.077 16.686L100.084 16.6468ZM52.1096 51.7543C51.7711 49.2113 50.9175 46.7638 49.6019 44.5628L49.4997 44.414C48.269 42.2448 46.6197 40.3424 44.6493 38.8167C43.9934 38.1973 43.1755 37.777 42.2911 37.6031C41.4057 37.4292 40.4904 37.5104 39.6494 37.835L39.4931 37.977C39.4102 38.0727 39.3581 38.1915 39.3446 38.3181C39.3301 38.4437 39.3552 38.5713 39.414 38.6834C39.4555 38.7549 39.5114 38.8186 39.577 38.8689C39.6426 38.9191 39.7178 38.9558 39.7979 38.9771C39.8779 38.9983 39.9619 39.0032 40.0438 38.9925C40.1258 38.9809 40.2049 38.9529 40.2763 38.9104C40.5791 38.7471 40.9215 38.6737 41.2639 38.6988C42.0847 38.7848 42.8688 39.0853 43.5363 39.5703C42.6296 39.3819 41.6864 39.5211 40.8723 39.9626C40.2068 40.4158 39.6706 41.0351 39.3176 41.7598C38.9646 42.4835 38.8064 43.2883 38.8585 44.0922C38.9279 46.1097 39.4912 48.0779 40.4981 49.8258C41.505 51.5746 42.9248 53.0481 44.6338 54.1177C45.3032 54.5641 46.0777 54.8279 46.8801 54.883C47.6826 54.938 48.486 54.7825 49.2103 54.4317C50.0224 53.9351 50.6272 53.1592 50.9107 52.2491C50.984 53.0153 50.8953 53.7882 50.6522 54.5177C50.5182 54.94 50.2414 55.3004 49.8681 55.5381C49.7254 55.6221 49.6212 55.7593 49.5788 55.9188C49.5363 56.0792 49.5585 56.2502 49.6415 56.3941C49.7022 56.4985 49.7929 56.5835 49.9009 56.6376C50.0099 56.6927 50.1314 56.7139 50.252 56.7004C50.3369 56.6879 50.4188 56.6608 50.495 56.6212C51.1972 56.0473 51.7219 55.2849 52.0074 54.423C52.2938 53.5612 52.3285 52.6355 52.1096 51.7543ZM48.5834 53.3245C48.0424 53.5641 47.4492 53.6607 46.8599 53.6037C46.2715 53.5476 45.7073 53.3409 45.2212 53.0027C43.7099 52.0442 42.4531 50.7331 41.5591 49.1813C40.665 47.6286 40.1605 45.8826 40.0882 44.0922C39.9744 43.5 40.0477 42.8864 40.2985 42.3376C40.5483 41.7888 40.963 41.3318 41.4838 41.0303C42.0046 40.7279 42.6074 40.5955 43.2064 40.6525C43.8063 40.7085 44.3734 40.9501 44.8296 41.3443C46.3072 42.239 47.535 43.4951 48.3953 44.9947L48.513 45.1908C49.4322 46.7223 49.9356 48.4683 49.9704 50.2548C50.0109 50.8355 49.9038 51.4171 49.6598 51.9457C49.4167 52.4742 49.0435 52.9322 48.5757 53.2771L48.5834 53.3245ZM68.2522 34.5692C65.8844 30.2241 62.5087 26.5109 58.4096 23.7437C57.4046 23.1002 56.3292 22.5726 55.2046 22.1736C53.675 21.5881 52.0276 21.3813 50.4015 21.5687C50.3195 21.6335 50.223 21.6769 50.1198 21.6943C50.0176 21.7127 49.9125 21.704 49.8131 21.6711C49.3724 21.762 48.9393 21.8905 48.5207 22.0557C45.4575 23.2499 42.7666 25.2355 40.7209 27.8124C38.6743 30.3884 37.3481 33.4629 36.8755 36.721C36.1164 41.4786 36.9864 46.3532 39.3436 50.5533C41.67 54.3863 45.2048 57.3343 49.3907 58.9295C52.6111 60.3798 56.146 60.9856 59.6654 60.6919C63.1838 60.3981 66.5702 59.2136 69.5061 57.2492C69.7983 57.0434 70.0761 56.8183 70.3375 56.5748C70.5198 56.4019 70.6972 56.227 70.8699 56.0482C71.3473 55.5216 71.7504 54.9332 72.0687 54.2974C72.9753 52.3843 73.3313 50.2558 73.0959 48.1513C72.4748 43.327 70.8274 38.694 68.2522 34.5692ZM51.0593 57.7207C50.8992 57.8125 50.7092 57.8377 50.5298 57.7913C50.3513 57.7439 50.198 57.629 50.1035 57.4695C50.0282 57.3362 49.9993 57.1826 50.0186 57.0309C50.0388 56.8801 50.1063 56.7391 50.2134 56.6299C50.0928 56.6434 49.9704 56.6212 49.8623 56.5671C49.7533 56.513 49.6637 56.4279 49.6019 56.3236C49.5199 56.1787 49.4987 56.0076 49.5431 55.8473C49.5865 55.6859 49.6926 55.5497 49.8372 55.4675C50.2095 55.2298 50.4873 54.8685 50.6204 54.4472C50.334 54.7612 49.9974 55.026 49.6251 55.2318C48.8159 55.6279 47.917 55.8047 47.0181 55.7458C46.1192 55.6869 45.2511 55.3931 44.5007 54.8946C42.5814 53.6945 40.9861 52.0404 39.8567 50.077C38.7263 48.1136 38.0956 45.902 38.0194 43.6372C37.9615 42.7328 38.1409 41.8303 38.5392 41.0177C38.9376 40.2051 39.5423 39.5104 40.2917 39.0051C40.5897 38.8331 40.908 38.7007 41.2408 38.6128C40.8955 38.5858 40.5492 38.6592 40.2454 38.8244C40.1017 38.9075 39.931 38.9297 39.7709 38.8872C39.6108 38.8447 39.4748 38.7404 39.3909 38.5964C39.3311 38.4853 39.307 38.3577 39.3205 38.2312C39.3349 38.1056 39.3861 37.9867 39.469 37.8901C39.3214 37.9287 39.1652 37.9181 39.0234 37.8601C38.8826 37.8022 38.764 37.6997 38.6858 37.5683C38.5942 37.4079 38.5682 37.2176 38.6154 37.0379C38.6627 36.8591 38.7775 36.7055 38.9366 36.6108C39.8799 36.2417 40.909 36.1499 41.9024 36.3461C42.8968 36.5422 43.814 37.0176 44.547 37.7171C46.7731 39.4264 48.6374 41.5607 50.033 43.9976L50.1266 44.1628C51.6052 46.6334 52.5648 49.3794 52.9477 52.2336C53.1956 53.2327 53.1503 54.282 52.8166 55.255C52.4828 56.2289 51.8752 57.085 51.067 57.7207M90.9554 51.3775L90.4374 51.6365L90.312 51.6916C86.3914 53.6163 82.1823 54.883 77.8528 55.4443V92.7655C77.7775 94.5694 78.3938 96.3328 79.5763 97.6951C80.5765 98.6092 81.758 99.302 83.0436 99.7281C84.3293 100.154 85.6892 100.304 87.0366 100.169C88.3773 100.292 89.7295 100.137 91.0074 99.7097C92.2854 99.2826 93.4601 98.5937 94.4574 97.6874C95.6553 96.3347 96.289 94.5733 96.2292 92.7655V48.017C95.1509 48.8335 94.0311 49.5939 92.8747 50.2944C92.241 50.6703 91.6054 51.0316 90.9554 51.3775Z" fill="#262B54"/>
</svg>
